<?xml version="1.0" encoding="UTF-8"?>
<svg version="1.1" xmlns="http://www.w3.org/2000/svg" width="1024" height="1024">
<path d="M0 0 C0.65188181 -0.00115384 1.30376363 -0.00230769 1.97539943 -0.0034965 C4.15682617 -0.00614054 6.33817889 -0.00165929 8.51960182 0.00279331 C10.10045407 0.00235716 11.68130625 0.00148144 13.26215804 0.00020415 C17.60401238 -0.00203213 21.94584206 0.00196864 26.28769326 0.00698221 C30.97065813 0.01129894 35.6536216 0.00983941 40.33658791 0.00907993 C48.44942873 0.00855548 56.56226152 0.01169413 64.67510033 0.01731777 C76.40491713 0.02544333 88.13473004 0.02804908 99.86454935 0.02930576 C118.8952091 0.03149462 137.92586457 0.0381502 156.95652199 0.04760838 C175.44350094 0.05678679 193.93047872 0.06386553 212.41745949 0.06811619 C213.55691546 0.06837891 214.69637143 0.06864164 215.87035637 0.06891232 C221.58664777 0.07021735 227.30293919 0.07148106 233.0192306 0.07272422 C280.44478336 0.08309165 327.87032819 0.10152718 375.29587746 0.12304783 C375.29587746 34.77304783 375.29587746 69.42304783 375.29587746 105.12304783 C254.18587746 105.12304783 133.07587746 105.12304783 8.29587746 105.12304783 C8.29587746 347.34304783 8.29587746 589.56304783 8.29587746 839.12304783 C250.51587746 839.12304783 492.73587746 839.12304783 742.29587746 839.12304783 C742.29587746 718.01304783 742.29587746 596.90304783 742.29587746 472.12304783 C776.94587746 472.12304783 811.59587746 472.12304783 847.29587746 472.12304783 C847.38412422 520.49822626 847.45795589 568.87332854 847.50013877 617.24856448 C847.50514137 622.96478238 847.51031868 628.68100011 847.51560402 634.39721775 C847.51717788 636.1041511 847.51717788 636.1041511 847.51878354 637.84556795 C847.53617018 656.25077732 847.56769826 674.65593651 847.60448864 693.06111615 C847.64194654 711.95839248 847.66412356 730.85564261 847.67223144 749.75295454 C847.67770915 761.40567364 847.69498556 773.05825089 847.72754332 784.7109263 C847.7487511 792.71076138 847.75506336 800.71052354 847.74988297 808.71038466 C847.74733092 813.32006943 847.75113429 817.929507 847.77269936 822.53914738 C847.79235033 826.77085071 847.79302907 831.00214366 847.77947304 835.233867 C847.77780086 836.75368323 847.78271696 838.27352646 847.79541019 839.79329061 C848.03058111 869.72437475 835.41902763 895.5744716 814.79978371 916.67773533 C798.54396889 932.10607845 774.38366471 944.234156 751.67145747 944.251849 C750.5671988 944.25512119 749.46294012 944.25839338 748.32521906 944.26176473 C747.12012064 944.26028111 745.91502221 944.25879749 744.67340565 944.25726891 C743.38165823 944.25962114 742.08991081 944.26197337 740.75901952 944.26439688 C737.16405682 944.27079174 733.56911649 944.27095891 729.97414919 944.27011947 C726.06646909 944.27028907 722.15879698 944.27619637 718.25112087 944.28136033 C710.49631351 944.29068639 702.74151186 944.29460839 694.98669959 944.29687929 C685.69946892 944.29984137 676.41224583 944.30853886 667.12501913 944.31729357 C644.67568085 944.33813937 622.22634125 944.34860821 599.77699555 944.35742318 C589.15631193 944.36162973 578.53562887 944.36685173 567.91494572 944.37210771 C531.55803342 944.38999853 495.20112095 944.40499424 458.8442049 944.4124279 C456.56161125 944.41290266 454.2790176 944.41337855 451.99642395 944.41385556 C450.29848355 944.41421013 450.29848355 944.41421013 448.56624133 944.41457186 C442.83118189 944.41577305 437.09612244 944.4169885 431.361063 944.41821384 C429.65385361 944.41857407 429.65385361 944.41857407 427.91215514 944.41894157 C391.01568188 944.4268335 354.11924078 944.45026282 317.22278157 944.48276979 C278.21269909 944.51707616 239.20263542 944.53677982 200.19253761 944.54007214 C195.90909596 944.54048968 191.62565432 944.54096924 187.34221268 944.54149532 C186.2875109 944.54161851 185.23280913 944.54174171 184.1461467 944.54186863 C167.18036231 944.54419971 150.21461529 944.55985458 133.24884422 944.58033717 C116.19075154 944.60060426 99.13270369 944.60606829 82.0746012 944.59656654 C71.94452684 944.59135495 61.81460189 944.59721289 51.68454908 944.61910121 C44.91064447 944.6326297 38.13684246 944.63151421 31.36293678 944.61869925 C27.50795592 944.61181624 23.65326026 944.61108579 19.79830512 944.62825934 C-9.58223361 944.75107784 -9.58223361 944.75107784 -23.70412254 940.12304783 C-25.44712032 939.55636032 -25.44712032 939.55636032 -27.22533017 938.97822458 C-53.37014541 930.01473551 -73.4318549 910.98057708 -86.42677879 886.93554783 C-92.13601975 875.2542364 -96.82272056 861.5962434 -96.83292371 848.49862784 C-96.8361959 847.39436917 -96.8394681 846.29011049 -96.84283945 845.15238944 C-96.84135583 843.94729101 -96.8398722 842.74219258 -96.83834362 841.50057602 C-96.84069585 840.2088286 -96.84304808 838.91708118 -96.84547159 837.5861899 C-96.85186646 833.9912272 -96.85203362 830.39628686 -96.85119418 826.80131956 C-96.85136378 822.89363946 -96.85727108 818.98596735 -96.86243504 815.07829124 C-96.8717611 807.32348388 -96.8756831 799.56868223 -96.87795401 791.81386997 C-96.88091609 782.52663929 -96.88961357 773.2394162 -96.89836829 763.9521895 C-96.91921409 741.50285122 -96.92968293 719.05351162 -96.9384979 696.60416592 C-96.94270444 685.9834823 -96.94792644 675.36279924 -96.95318243 664.7421161 C-96.97107324 628.38520379 -96.98606895 592.02829132 -96.99350262 555.67137527 C-96.99397737 553.38878162 -96.99445326 551.10618797 -96.99493028 548.82359432 C-96.99516665 547.69163406 -96.99540303 546.5596738 -96.99564657 545.39341171 C-96.99684777 539.65835226 -96.99806322 533.92329282 -96.99928856 528.18823338 C-96.99952871 527.05009378 -96.99976886 525.91195418 -97.00001629 524.73932551 C-97.00790821 487.84285225 -97.03133753 450.94641115 -97.0638445 414.04995194 C-97.09815088 375.03986946 -97.11785453 336.02980579 -97.12114686 297.01970798 C-97.12156439 292.73626633 -97.12204396 288.45282469 -97.12257004 284.16938305 C-97.12269323 283.11468128 -97.12281642 282.0599795 -97.12294335 280.97331707 C-97.12527442 264.00753268 -97.14092929 247.04178566 -97.16141188 230.07601459 C-97.18167898 213.01792191 -97.187143 195.95987406 -97.17764125 178.90177157 C-97.17242967 168.77169722 -97.17828761 158.64177226 -97.20017592 148.51171945 C-97.21370442 141.73781484 -97.21258892 134.96401283 -97.19977396 128.19010715 C-97.19289096 124.3351263 -97.1921605 120.48043063 -97.20933405 116.62547549 C-97.33215255 87.24493676 -97.33215255 87.24493676 -92.70412254 73.12304783 C-92.32633087 71.96104931 -91.9485392 70.79905079 -91.55929929 69.6018402 C-82.59581023 43.45702497 -63.56165179 23.39531547 -39.51662254 10.40039158 C-27.37070787 4.46407578 -13.5880232 -0.00445509 0 0 Z " fill="#000000" transform="translate(136.70412254333496,39.876952171325684)"/>
<path d="M0 0 C121.44 0 242.88 0 368 0 C368 121.44 368 242.88 368 368 C333.35 368 298.7 368 263 368 C262.67 306.29 262.34 244.58 262 181 C238.81186035 204.22741577 238.81186035 204.22741577 215.15527344 227.92407227 C204.83459382 238.26149888 194.51387226 248.59888338 184.19256592 258.9356842 C183.53695984 259.59227695 182.88135377 260.24886969 182.20588085 260.92535918 C160.14635859 283.01799097 138.08341096 305.10719869 116.0178833 327.1938324 C115.29805964 327.91434634 114.57823599 328.63486028 113.8365995 329.37720798 C98.19466854 345.03410181 82.55218152 360.69043998 66.9091212 376.34620545 C59.23830152 384.02326207 51.56760479 391.70044153 43.89697266 399.37768555 C43.13363108 400.14168092 42.3702895 400.9056763 41.58381635 401.69282305 C16.82053123 426.47743305 -7.93461711 451.27015141 -32.68558015 476.06706626 C-58.11033782 501.5389411 -83.54323956 527.00265612 -108.98648734 552.45606229 C-112.57623486 556.04725069 -116.16588871 559.63853272 -119.75548553 563.22987175 C-120.81526584 564.29015773 -120.81526584 564.29015773 -121.89645585 565.37186362 C-133.29110574 576.77243308 -144.67708128 588.18162836 -156.05987449 599.59403466 C-167.49037992 611.05391039 -178.92988332 622.50473982 -190.3787578 633.94626469 C-197.18904543 640.75273564 -203.99219925 647.56616413 -210.78555128 654.389539 C-215.31640438 658.93905365 -219.85616436 663.47954514 -224.40346301 668.01262207 C-226.99922771 670.60079208 -229.59075029 673.1928694 -232.17155173 675.79596765 C-234.94347594 678.59165873 -237.7342211 681.36803824 -240.52733231 684.14257145 C-241.33664477 684.96501898 -242.14595724 685.78746652 -242.97979432 686.6348367 C-243.72125969 687.3650656 -244.46272505 688.0952945 -245.22665906 688.84765154 C-245.86368393 689.48545631 -246.5007088 690.12326109 -247.15703745 690.78039328 C-249 692 -249 692 -251.09761588 691.81311255 C-253.86764878 690.6291516 -255.52834536 688.82186511 -257.64160156 686.68310547 C-258.55645325 685.7647995 -259.47130493 684.84649353 -260.41387939 683.90036011 C-261.40620443 682.88937766 -262.39845097 681.87831815 -263.390625 680.8671875 C-264.4187615 679.83090664 -265.44764322 678.79536465 -266.47723389 677.76052856 C-269.18991906 675.03071966 -271.89393007 672.29248524 -274.59576416 669.55194092 C-278.90326122 665.18532166 -283.22324723 660.83107212 -287.54418182 656.4777565 C-289.0424141 654.96572726 -290.53666025 653.44984949 -292.03033447 651.93331909 C-296.65720949 647.25776075 -301.32318729 642.72609178 -306.32147217 638.44897461 C-308.47604675 636.58905677 -310.49565316 634.61766205 -312.5 632.59765625 C-313.24121094 631.85322266 -313.98242188 631.10878906 -314.74609375 630.34179688 C-315.86177734 629.21354492 -315.86177734 629.21354492 -317 628.0625 C-317.77472656 627.28326172 -318.54945313 626.50402344 -319.34765625 625.70117188 C-321.23410757 623.8030758 -323.11816245 621.90266851 -325 620 C-323.5949835 616.82185377 -321.93323691 614.68363748 -319.48146808 612.23307109 C-318.74593072 611.49303914 -318.01039336 610.7530072 -317.25256699 609.99055004 C-316.03312377 608.77898786 -316.03312377 608.77898786 -314.78904533 607.54294968 C-313.92566707 606.67726372 -313.0622888 605.81157776 -312.17274755 604.9196589 C-309.7642515 602.50676567 -307.35132555 600.0984603 -304.93647197 597.69193959 C-302.31462482 595.07694863 -299.69857365 592.4561704 -297.08179581 589.83610845 C-292.49119108 585.24135111 -287.89687228 580.65033371 -283.30012894 576.06171799 C-276.46491887 569.23855995 -269.63543238 562.40969472 -262.80712479 555.57962986 C-251.32160803 544.09148291 -239.83143479 532.60800393 -228.33861923 521.12715912 C-216.95592462 509.75629023 -205.57529301 498.38336311 -194.19742203 487.00766754 C-193.13707296 485.94752469 -193.13707296 485.94752469 -192.0553027 484.86596482 C-188.46546835 481.27680711 -184.87567093 477.68761247 -181.28588773 474.0984036 C-155.84579393 448.66251292 -130.40106425 423.23126437 -104.95361328 397.80273438 C-80.22861182 373.09609555 -55.50570739 348.3873614 -30.78564453 323.67578125 C-30.02393907 322.91433884 -29.26223361 322.15289643 -28.47744616 321.36838001 C-20.82823257 313.72180341 -13.17906165 306.07518412 -5.529922 298.42853356 C10.05287396 282.85081031 25.63595477 267.27337201 41.21920776 251.69610596 C41.93573253 250.97985577 42.65225731 250.26360558 43.39049495 249.52565083 C65.3570391 227.56755447 87.32479051 205.61066642 109.29373169 183.65496826 C109.91757055 183.03150452 110.54140941 182.40804078 111.18415247 181.76568419 C136.45535744 156.50971144 161.72783925 131.25501635 187 106 C125.29 105.67 63.58 105.34 0 105 C0 70.35 0 35.7 0 0 Z " fill="#000000" transform="translate(616,40)"/>
</svg>
